<svg xmlns="http://www.w3.org/2000/svg" width="38" height="67" viewBox="0 0 38 67" fill="none">
  <path d="M27.503 0C29.9838 0.7121 32.0188 2.73423 33.284 4.93845C35.5627 9.32598 35.678 14.1144 34.2416 18.8C32.1123 24.6745 26.3351 28.0797 20.9968 30.6456C11.0664 35.3777 11.0664 35.3777 4.94734 44.1514C3.58657 48.2062 4.03712 52.6402 5.83505 56.4871C7.30005 59.2111 9.52087 61.8532 11.9482 63.7719C12.3993 64.2914 12.3993 64.2914 12.4946 65.0213C12.3993 65.684 12.3993 65.684 11.9346 66.1482C9.30285 66.0403 7.05987 63.7676 5.32675 61.9559C2.04788 58.2015 -0.164649 53.4592 0.00960685 48.3999C0.671696 41.1091 4.46057 36.0214 10.2672 32.0705C13.6481 29.7568 17.3914 28.1808 20.9959 26.2571C23.9034 24.7097 27.0063 23.2264 28.9408 20.4682C31.0615 17.5848 31.6915 13.9562 31.2208 10.4445C30.5613 7.46041 29.2101 4.52413 26.6906 2.69997C26.3412 2.32099 26.3412 2.32099 26.2531 1.73621C26.3826 0.889421 26.8753 0.548587 27.503 0Z" fill="#F56C37"/>
  <path d="M29.2684 33.406C33.3005 35.8894 36.1953 39.8312 37.4033 44.4099C37.4574 44.6405 37.4574 44.6405 37.5125 44.8757C37.5519 45.0137 37.5913 45.1516 37.6319 45.2937C38.6407 49.8717 37.4909 54.7819 35.2024 58.7434C35.0878 58.943 34.9731 59.1426 34.855 59.3483C33.4109 61.6617 31.5148 63.5617 29.1962 64.9838C29.0092 65.1009 28.8222 65.218 28.6295 65.3387C27.6782 65.9043 27.0909 66.2045 25.962 66.1395C25.6054 65.4259 25.5809 65.0864 25.731 64.2905C26.2062 63.8404 26.7171 63.4763 27.2488 63.0951C28.1143 62.4436 28.7525 61.6653 29.4272 60.8235C29.6136 60.5992 29.8 60.3748 29.9921 60.1437C31.3423 58.486 32.3516 56.8252 33.1233 54.8142C33.1852 54.6691 33.2471 54.524 33.3108 54.3745C33.9352 52.7719 33.9193 51.2153 33.903 49.5127C33.9057 49.2328 33.9084 48.9529 33.9111 48.6645C33.9004 45.3472 32.6853 41.4785 30.3251 39.0136C29.4541 38.2576 28.5432 37.5558 27.6179 36.8684C27.1999 36.5575 26.7846 36.2426 26.378 35.9168C24.8572 34.7014 23.0534 33.6214 21.1108 33.3193C24.2327 30.7879 26.0546 31.4695 29.2684 33.406Z" fill="#F56C37"/>
  <path d="M11.0117 0.145117C11.436 0.696918 11.7044 1.05416 11.6575 1.77952C11.3782 2.49281 10.9352 2.83702 10.3791 3.33239C9.11105 4.46814 8.29488 5.52162 7.6097 7.12747C7.49778 7.38645 7.38586 7.64542 7.27055 7.91224C6.09021 10.8746 6.10194 14.4402 7.18796 17.4602C8.59002 21.0382 10.6343 23.6256 14.0685 25.1782C14.7702 25.4658 15.4735 25.7402 16.1851 25.9991C16.1851 26.3122 16.1851 26.6253 16.1851 26.9479C15.6105 27.2732 15.0342 27.5936 14.4559 27.9115C14.2937 28.004 14.1315 28.0964 13.9644 28.1917C12.7667 28.8434 12.7667 28.8434 11.9949 28.8519C11.2677 28.5196 10.6704 28.059 10.0558 27.5408C9.92727 27.4336 9.79875 27.3264 9.66634 27.2159C6.10897 24.2026 3.65172 20.3922 2.91432 15.5626C2.55546 10.8527 3.07529 6.57927 5.97897 2.79871C7.12822 1.52038 9.25136 -0.569371 11.0117 0.145117Z" fill="#F56C37"/>
  <path d="M7.28185 49.9655C7.46035 49.9656 7.63884 49.9657 7.82274 49.9659C8.02756 49.9649 8.23238 49.964 8.4434 49.963C8.66863 49.9643 8.89386 49.9655 9.12592 49.9668C9.48108 49.9662 9.48108 49.9662 9.84342 49.9655C10.629 49.9647 11.4146 49.9671 12.2002 49.9696C12.7443 49.9699 13.2883 49.97 13.8324 49.9699C14.9738 49.9702 16.1152 49.9721 17.2566 49.9751C18.7224 49.9788 20.1882 49.9797 21.654 49.9795C22.7778 49.9796 23.9016 49.9808 25.0254 49.9824C25.566 49.9831 26.1066 49.9836 26.6472 49.9837C27.4016 49.9842 28.1561 49.9862 28.9105 49.9885C29.1358 49.9884 29.361 49.9883 29.593 49.9882C29.7979 49.9892 30.0027 49.9901 30.2137 49.9911C30.3922 49.9915 30.5707 49.9918 30.7546 49.9922C31.1911 50.0208 31.1911 50.0208 31.6593 50.2432C31.6693 50.6879 31.6689 51.1328 31.6593 51.5775C31.2997 51.9191 30.9684 51.8325 30.4671 51.8381C30.2606 51.8409 30.0541 51.8437 29.8414 51.8466C29.499 51.8496 29.499 51.8496 29.1497 51.8526C28.9107 51.8555 28.6717 51.8584 28.4254 51.8614C27.6309 51.8708 26.8364 51.8784 26.042 51.8859C25.4923 51.8916 24.9427 51.8973 24.3931 51.9031C23.2393 51.9149 22.0854 51.9258 20.9316 51.9361C19.4497 51.9495 17.9679 51.966 16.4861 51.9833C15.3505 51.9961 14.2149 52.0069 13.0792 52.017C12.5327 52.0223 11.9863 52.0282 11.4398 52.0349C10.6769 52.044 9.91404 52.0503 9.15112 52.0559C8.80944 52.0609 8.80944 52.0609 8.46086 52.066C8.25373 52.0669 8.04661 52.0678 7.83321 52.0688C7.65268 52.0706 7.47216 52.0723 7.28616 52.0741C6.84533 52.0223 6.84533 52.0223 6.37714 51.5775C6.31862 51.0216 6.31862 51.0216 6.37714 50.4656C6.84533 50.0208 6.84533 50.0208 7.28185 49.9655Z" fill="white"/>
  <path d="M7.01978 45.0374C7.20265 45.0377 7.38552 45.0379 7.57392 45.0381C7.78315 45.0378 7.99237 45.0375 8.20794 45.0371C8.43924 45.038 8.67054 45.0389 8.90886 45.0398C9.15104 45.0398 9.39323 45.0398 9.64276 45.0397C10.4475 45.0399 11.2522 45.0419 12.057 45.0438C12.6133 45.0443 13.1696 45.0447 13.7259 45.0449C15.1933 45.0459 16.6607 45.0483 18.1281 45.0511C19.6242 45.0537 21.1203 45.0548 22.6164 45.0561C25.5543 45.0588 28.4923 45.0631 31.4302 45.0684C31.5779 45.791 31.5779 45.791 31.6666 46.5766C31.1014 47.1774 30.9847 47.1423 30.2154 47.1431C29.9081 47.1453 29.9081 47.1453 29.5946 47.1474C29.3693 47.1464 29.144 47.1454 28.9119 47.1443C28.5566 47.1457 28.5566 47.1457 28.1942 47.147C27.4083 47.1492 26.6225 47.1478 25.8367 47.1461C25.2924 47.1464 24.7482 47.1469 24.204 47.1475C23.0622 47.1483 21.9205 47.1472 20.7787 47.1448C19.3125 47.142 17.8462 47.1436 16.38 47.1466C15.2558 47.1484 14.1317 47.1479 13.0076 47.1466C12.4668 47.1462 11.926 47.1466 11.3853 47.1478C10.6306 47.1491 9.87593 47.1472 9.12123 47.1443C8.89595 47.1454 8.67066 47.1464 8.43854 47.1474C8.23366 47.146 8.02877 47.1446 7.81767 47.1431C7.54985 47.1428 7.54985 47.1428 7.27662 47.1426C6.8394 47.0793 6.8394 47.0793 6.3665 46.5766C6.32217 45.9324 6.32217 45.9324 6.3665 45.3197C6.60295 45.0684 6.60295 45.0684 7.01978 45.0374Z" fill="white"/>
  <path d="M10.0522 55.623C10.2488 55.6238 10.4454 55.6246 10.6479 55.6254C10.9568 55.6253 10.9568 55.6253 11.272 55.6253C11.9561 55.6254 12.6403 55.6272 13.3244 55.6289C13.7974 55.6293 14.2704 55.6296 14.7434 55.6299C15.9909 55.6307 17.2385 55.6329 18.4861 55.6353C19.758 55.6376 21.03 55.6386 22.302 55.6397C24.7997 55.6421 27.2975 55.6459 29.7952 55.6506C30.0249 56.0896 30.0249 56.0896 30.2592 56.5375C29.4612 57.3528 29.0228 57.6319 27.8267 57.6758C27.4856 57.6778 27.1445 57.6785 26.8033 57.6784C26.6169 57.6791 26.4305 57.6798 26.2384 57.6806C25.6215 57.6827 25.0046 57.6832 24.3877 57.6834C23.9592 57.6841 23.5307 57.6848 23.1022 57.6856C22.2037 57.687 21.3053 57.6874 20.4068 57.6872C19.255 57.6872 18.1033 57.6902 16.9516 57.6941C16.0665 57.6965 15.1815 57.697 14.2964 57.6969C13.8718 57.6971 13.4471 57.6981 13.0225 57.6998C12.4288 57.702 11.8352 57.7013 11.2415 57.7C11.0659 57.7013 10.8902 57.7025 10.7093 57.7038C9.84307 57.6988 9.18682 57.6645 8.45159 57.2027C8.44172 56.7593 8.44212 56.3157 8.45159 55.8723C8.87955 55.4633 9.48285 55.624 10.0522 55.623Z" fill="white"/>
  <path d="M11.3797 15.5304C11.5594 15.5293 11.739 15.5282 11.9242 15.5271C12.5199 15.5239 13.1156 15.5224 13.7114 15.5212C14.1245 15.5199 14.5376 15.5187 14.9507 15.5174C15.8173 15.5151 16.684 15.5138 17.5506 15.5131C18.6624 15.5118 19.7741 15.5066 20.8858 15.5004C21.7392 15.4963 22.5926 15.4951 23.446 15.4948C23.856 15.4941 24.2659 15.4924 24.6758 15.4895C25.2487 15.4858 25.8214 15.4862 26.3943 15.4876C26.6494 15.4846 26.6494 15.4846 26.9096 15.4815C28.0634 15.4905 28.0634 15.4905 28.6195 15.8989C28.6962 16.0056 28.7729 16.1123 28.8519 16.2223C28.4516 17.2895 28.4516 17.2895 27.937 17.5357C27.3683 17.5583 26.8059 17.5678 26.2371 17.5675C25.9743 17.5686 25.9743 17.5686 25.7062 17.5697C25.1253 17.5718 24.5444 17.5722 23.9635 17.5725C23.5607 17.5732 23.1578 17.5739 22.755 17.5747C21.9099 17.576 21.0648 17.5764 20.2196 17.5763C19.1356 17.5763 18.0515 17.5792 16.9675 17.583C16.1353 17.5854 15.3031 17.5859 14.4709 17.5858C14.0712 17.586 13.6714 17.587 13.2717 17.5887C12.7131 17.5908 12.1546 17.5902 11.596 17.5889C11.4302 17.5901 11.2645 17.5913 11.0936 17.5926C10.2512 17.5875 9.90134 17.5579 9.18036 17.0979C9.13747 16.4139 9.13747 16.4139 9.18036 15.7845C9.88 15.4498 10.6119 15.5315 11.3797 15.5304Z" fill="white"/>
  <path d="M10.9158 9.86182C11.1037 9.86131 11.2916 9.86079 11.4851 9.86026C12.1067 9.85951 12.7281 9.86416 13.3497 9.86894C13.7809 9.86971 14.2121 9.87018 14.6433 9.87037C15.5472 9.87153 16.451 9.87516 17.3548 9.88073C18.5152 9.88785 19.6755 9.89059 20.8359 9.89171C21.7262 9.89276 22.6166 9.89522 23.5069 9.89822C23.9349 9.89965 24.3629 9.90085 24.7908 9.90181C25.388 9.90353 25.9851 9.90696 26.5822 9.91093C26.7602 9.91121 26.9382 9.91149 27.1216 9.91178C28.3449 9.92261 28.3449 9.92261 28.8518 10.2029C28.8518 10.7837 28.8518 11.3645 28.8518 11.963C22.1743 11.963 15.4967 11.963 8.61688 11.963C8.38952 10.7058 8.38952 10.7058 8.60109 10.2556C9.33656 9.78015 10.0879 9.85102 10.9158 9.86182Z" fill="white"/>
  <path d="M9.37467 40.1327C11.8807 40.1287 14.3868 40.1256 16.8929 40.1237C18.0565 40.1228 19.22 40.1216 20.3835 40.1196C21.5054 40.1178 22.6273 40.1167 23.7493 40.1163C24.1783 40.116 24.6073 40.1153 25.0363 40.1144C25.6351 40.1132 26.2338 40.113 26.8326 40.1131C27.0118 40.1124 27.191 40.1118 27.3756 40.1112C28.5996 40.113 28.5996 40.113 28.8519 40.3059C28.7772 40.7061 28.7024 41.1063 28.6254 41.5186C22.198 41.5186 15.7705 41.5186 9.14819 41.5186C9.14819 40.4792 9.14819 40.4792 9.37467 40.1327Z" fill="white"/>
  <path d="M12.5551 4.9364C12.7096 4.93553 12.8641 4.93465 13.0233 4.93374C13.5352 4.93153 14.0471 4.933 14.559 4.93469C14.914 4.93435 15.269 4.93387 15.624 4.93324C16.3684 4.9325 17.1128 4.93357 17.8573 4.93591C18.8127 4.93877 19.7681 4.93713 20.7236 4.93412C21.4568 4.93231 22.1899 4.93289 22.9231 4.93419C23.2755 4.93452 23.6278 4.93411 23.9801 4.93294C24.4721 4.93167 24.964 4.93361 25.456 4.9364C25.8764 4.937 25.8764 4.937 26.3053 4.93761C26.9617 5.00128 26.9617 5.00128 27.423 5.50269C27.4518 6.28613 27.4518 6.28613 27.423 7.0069C25.262 7.0127 23.1011 7.01716 20.9401 7.01989C19.9368 7.0212 18.9335 7.02298 17.9302 7.02581C16.9628 7.02853 15.9953 7.03003 15.0279 7.03068C14.658 7.03115 14.288 7.03206 13.9181 7.03341C13.4018 7.03521 12.8855 7.03548 12.3691 7.03536C12.0746 7.03592 11.7802 7.03647 11.4768 7.03705C10.8187 7.0069 10.8187 7.0069 10.5881 6.7562C10.5449 6.14511 10.5449 6.14511 10.5881 5.50269C11.2365 4.79785 11.6469 4.9377 12.5551 4.9364Z" fill="white"/>
  <path d="M11.9631 60.5186C18.9298 60.6283 18.9298 60.6283 26.0372 60.7401C26.0372 60.9594 26.0372 61.1787 26.0372 61.4047C25.8824 61.4047 25.7276 61.4047 25.5681 61.4047C25.5681 61.5509 25.5681 61.6971 25.5681 61.8477C24.27 62.6221 23.1381 62.6125 21.6528 62.6083C21.4129 62.6095 21.173 62.6107 20.9258 62.6118C20.4201 62.6133 19.9144 62.613 19.4087 62.6111C18.6354 62.6092 17.8625 62.6156 17.0893 62.6226C16.5971 62.623 16.1049 62.6228 15.6127 62.6222C15.382 62.6247 15.1513 62.6272 14.9136 62.6297C13.9113 62.6201 13.2872 62.59 12.3948 62.1316C11.9631 61.6262 11.9631 61.6262 11.9631 60.5186Z" fill="white"/>
  <path d="M12.758 20.4074C12.9894 20.408 13.2208 20.4085 13.4592 20.4091C13.7206 20.4091 13.982 20.4091 14.2512 20.4092C14.6777 20.4111 14.6777 20.4111 15.1129 20.413C15.4023 20.4134 15.6917 20.4137 15.99 20.4141C16.9187 20.4155 17.8475 20.4186 18.7763 20.4218C19.4042 20.423 20.032 20.4241 20.6599 20.4252C22.203 20.4279 23.746 20.432 25.289 20.4373C25.3484 21.0108 25.3484 21.0108 25.289 21.6774C24.8018 22.2174 24.4793 22.3984 23.778 22.5143C23.5707 22.5142 23.3634 22.514 23.1498 22.5139C22.9138 22.5154 22.6778 22.517 22.4346 22.5185C22.1814 22.5163 21.9282 22.514 21.6673 22.5116C21.4064 22.5117 21.1454 22.5119 20.8765 22.512C20.3255 22.5114 19.7744 22.509 19.2233 22.5049C18.3773 22.499 17.5315 22.4998 16.6854 22.5015C16.1504 22.5001 15.6154 22.4983 15.0804 22.4961C14.8262 22.4964 14.5721 22.4966 14.3102 22.4968C14.0757 22.4944 13.8412 22.4921 13.5995 22.4896C13.2892 22.4879 13.2892 22.4879 12.9725 22.4862C12.4712 22.4215 12.4712 22.4215 11.9965 21.9255C11.952 21.2899 11.952 21.2899 11.9965 20.6853C12.2339 20.4373 12.2339 20.4373 12.758 20.4074Z" fill="white"/>
  <path d="M17.7813 35.1878C18.0489 35.187 18.3165 35.1861 18.5922 35.1852C19.0118 35.1891 19.0118 35.1891 19.4398 35.193C19.7177 35.1904 19.9955 35.1879 20.2818 35.1852C20.5501 35.1861 20.8183 35.1869 21.0946 35.1878C21.3395 35.1886 21.5844 35.1893 21.8367 35.1901C22.6194 35.2883 23.0641 35.4908 23.6913 35.9366C23.8819 36.5287 23.8819 36.5287 23.9259 37.0382C23.2208 37.3693 22.5709 37.2871 21.7855 37.2877C21.5382 37.2881 21.5382 37.2881 21.286 37.2884C20.9374 37.2885 20.5888 37.2881 20.2402 37.2872C19.7058 37.286 19.1715 37.2872 18.6371 37.2886C18.2987 37.2885 17.9603 37.2882 17.6219 37.2877C17.3129 37.2875 17.0038 37.2872 16.6854 37.287C15.9506 37.2585 15.9506 37.2585 15.4814 37.0382C15.5632 36.4699 15.633 36.0451 15.9928 35.5746C16.5957 35.1523 17.0346 35.1901 17.7813 35.1878Z" fill="white"/>
</svg>