<svg xmlns="http://www.w3.org/2000/svg" width="390" height="390" viewBox="0 0 390 390" fill="none">
  <mask id="path-1-inside-1_60_14" fill="white">
    <path fill-rule="evenodd" clip-rule="evenodd" d="M195 389C302.143 389 389 302.143 389 195C389 87.8568 302.143 1 195 1C87.8568 1 1 87.8568 1 195C1 302.143 87.8568 389 195 389ZM195 390C302.696 390 390 302.696 390 195C390 87.3045 302.696 0 195 0C87.3045 0 0 87.3045 0 195C0 302.696 87.3045 390 195 390ZM195 319C263.483 319 319 263.483 319 195C319 126.517 263.483 71 195 71C126.517 71 71 126.517 71 195C71 263.483 126.517 319 195 319ZM195 320C264.036 320 320 264.036 320 195C320 125.964 264.036 70 195 70C125.964 70 70 125.964 70 195C70 264.036 125.964 320 195 320ZM255 195C255 228.137 228.137 255 195 255C161.863 255 135 228.137 135 195C135 161.863 161.863 135 195 135C228.137 135 255 161.863 255 195ZM256 195C256 228.689 228.689 256 195 256C161.311 256 134 228.689 134 195C134 161.311 161.311 134 195 134C228.689 134 256 161.311 256 195ZM194.5 222C209.688 222 222 209.688 222 194.5C222 179.312 209.688 167 194.5 167C179.312 167 167 179.312 167 194.5C167 209.688 179.312 222 194.5 222ZM194.5 223C210.24 223 223 210.24 223 194.5C223 178.76 210.24 166 194.5 166C178.76 166 166 178.76 166 194.5C166 210.24 178.76 223 194.5 223ZM195.43 204.86C200.638 204.86 204.86 200.638 204.86 195.43C204.86 190.222 200.638 186 195.43 186C190.222 186 186 190.222 186 195.43C186 200.638 190.222 204.86 195.43 204.86Z"/>
  </mask>
  <path fill-rule="evenodd" clip-rule="evenodd" d="M195 389C302.143 389 389 302.143 389 195C389 87.8568 302.143 1 195 1C87.8568 1 1 87.8568 1 195C1 302.143 87.8568 389 195 389ZM195 390C302.696 390 390 302.696 390 195C390 87.3045 302.696 0 195 0C87.3045 0 0 87.3045 0 195C0 302.696 87.3045 390 195 390ZM195 319C263.483 319 319 263.483 319 195C319 126.517 263.483 71 195 71C126.517 71 71 126.517 71 195C71 263.483 126.517 319 195 319ZM195 320C264.036 320 320 264.036 320 195C320 125.964 264.036 70 195 70C125.964 70 70 125.964 70 195C70 264.036 125.964 320 195 320ZM255 195C255 228.137 228.137 255 195 255C161.863 255 135 228.137 135 195C135 161.863 161.863 135 195 135C228.137 135 255 161.863 255 195ZM256 195C256 228.689 228.689 256 195 256C161.311 256 134 228.689 134 195C134 161.311 161.311 134 195 134C228.689 134 256 161.311 256 195ZM194.5 222C209.688 222 222 209.688 222 194.5C222 179.312 209.688 167 194.5 167C179.312 167 167 179.312 167 194.5C167 209.688 179.312 222 194.5 222ZM194.5 223C210.24 223 223 210.24 223 194.5C223 178.76 210.24 166 194.5 166C178.76 166 166 178.76 166 194.5C166 210.24 178.76 223 194.5 223ZM195.43 204.86C200.638 204.86 204.86 200.638 204.86 195.43C204.86 190.222 200.638 186 195.43 186C190.222 186 186 190.222 186 195.43C186 200.638 190.222 204.86 195.43 204.86Z" fill="#F56C37"/>
  <path d="M388 195C388 301.591 301.591 388 195 388V390C302.696 390 390 302.696 390 195H388ZM195 2C301.591 2 388 88.409 388 195H390C390 87.3045 302.696 0 195 0V2ZM2 195C2 88.409 88.409 2 195 2V0C87.3045 0 0 87.3045 0 195H2ZM195 388C88.409 388 2 301.591 2 195H0C0 302.696 87.3045 390 195 390V388ZM389 195C389 302.143 302.143 389 195 389V391C303.248 391 391 303.248 391 195H389ZM195 1C302.143 1 389 87.8568 389 195H391C391 86.7522 303.248 -1 195 -1V1ZM1 195C1 87.8568 87.8568 1 195 1V-1C86.7522 -1 -1 86.7522 -1 195H1ZM195 389C87.8568 389 1 302.143 1 195H-1C-1 303.248 86.7522 391 195 391V389ZM318 195C318 262.931 262.931 318 195 318V320C264.036 320 320 264.036 320 195H318ZM195 72C262.931 72 318 127.069 318 195H320C320 125.964 264.036 70 195 70V72ZM72 195C72 127.069 127.069 72 195 72V70C125.964 70 70 125.964 70 195H72ZM195 318C127.069 318 72 262.931 72 195H70C70 264.036 125.964 320 195 320V318ZM319 195C319 263.483 263.483 319 195 319V321C264.588 321 321 264.588 321 195H319ZM195 71C263.483 71 319 126.517 319 195H321C321 125.412 264.588 69 195 69V71ZM71 195C71 126.517 126.517 71 195 71V69C125.412 69 69 125.412 69 195H71ZM195 319C126.517 319 71 263.483 71 195H69C69 264.588 125.412 321 195 321V319ZM195 256C228.689 256 256 228.689 256 195H254C254 227.585 227.585 254 195 254V256ZM134 195C134 228.689 161.311 256 195 256V254C162.415 254 136 227.585 136 195H134ZM195 134C161.311 134 134 161.311 134 195H136C136 162.415 162.415 136 195 136V134ZM256 195C256 161.311 228.689 134 195 134V136C227.585 136 254 162.415 254 195H256ZM195 257C229.242 257 257 229.242 257 195H255C255 228.137 228.137 255 195 255V257ZM133 195C133 229.242 160.758 257 195 257V255C161.863 255 135 228.137 135 195H133ZM195 133C160.758 133 133 160.758 133 195H135C135 161.863 161.863 135 195 135V133ZM257 195C257 160.758 229.242 133 195 133V135C228.137 135 255 161.863 255 195H257ZM221 194.5C221 209.136 209.136 221 194.5 221V223C210.24 223 223 210.24 223 194.5H221ZM194.5 168C209.136 168 221 179.864 221 194.5H223C223 178.76 210.24 166 194.5 166V168ZM168 194.5C168 179.864 179.864 168 194.5 168V166C178.76 166 166 178.76 166 194.5H168ZM194.5 221C179.864 221 168 209.136 168 194.5H166C166 210.24 178.76 223 194.5 223V221ZM222 194.5C222 209.688 209.688 222 194.5 222V224C210.792 224 224 210.792 224 194.5H222ZM194.5 167C209.688 167 222 179.312 222 194.5H224C224 178.208 210.792 165 194.5 165V167ZM167 194.5C167 179.312 179.312 167 194.5 167V165C178.208 165 165 178.208 165 194.5H167ZM194.5 222C179.312 222 167 209.688 167 194.5H165C165 210.792 178.208 224 194.5 224V222ZM203.86 195.43C203.86 200.086 200.086 203.86 195.43 203.86V205.86C201.19 205.86 205.86 201.19 205.86 195.43H203.86ZM195.43 187C200.086 187 203.86 190.774 203.86 195.43H205.86C205.86 189.67 201.19 185 195.43 185V187ZM187 195.43C187 190.774 190.774 187 195.43 187V185C189.67 185 185 189.67 185 195.43H187ZM195.43 203.86C190.774 203.86 187 200.086 187 195.43H185C185 201.19 189.67 205.86 195.43 205.86V203.86Z" fill="#CFCFCF" mask="url(#path-1-inside-1_60_14)"/>
</svg>